# xmcd CD database file
#
# Track frame offsets:
#	150
#	12400
#	25803
#	36183
#	48632
#	61323
#	72765
#	86430
#	98454
#	110201
#	121958
#	134329
#	147446
#	159119
#	175139
#	187819
#	198688
#	210360
#	223931
#
# Disc length: 3131 seconds
#
# Revision: 2
# Processed by: cddbd v1.5.2PL0 Copyright (c) Steve Scherf et al.
# Submitted via: CDex 1.51
#
DISCID=0d0c3913
DTITLE=Ray Charles - Alone In The City RONDO - Alone In The City RONDO
DYEAR=1900
DGENRE=Blues
TTITLE0=Goin' down slow
TTITLE1=Alone in the City
TTITLE2=Now she's gone
TTITLE3=Rockin' Chair Blues
TTITLE4=Can anyone ask for more
TTITLE5=Let's have a ball
TTITLE6=This love of mine
TTITLE7=Can't you see darling
TTITLE8=If i give you my love
TTITLE9=Honey honey, ain't that fine
TTITLE10=Don't put all your dreams in one basket
TTITLE11=Baby won't you please come home
TTITLE12=Tell me baby, what have i done
TTITLE13=Ray Charles Blues
TTITLE14=You always miss the water when the well runs dry
TTITLE15=She's on the ball
TTITLE16=How long
TTITLE17=Someday
TTITLE18=A sentimental blues
EXTD=
EXTT0=
EXTT1=
EXTT2=
EXTT3=
EXTT4=
EXTT5=
EXTT6=
EXTT7=
EXTT8=
EXTT9=
EXTT10=
EXTT11=
EXTT12=
EXTT13=
EXTT14=
EXTT15=
EXTT16=
EXTT17=
EXTT18=
PLAYORDER=
